Sprint_06300001_forces_filt15Hz.mot
version=1
nRows=43
nColumns=19
inDegrees=yes
endheader
time	R_ground_force_vx	R_ground_force_vy	R_ground_force_vz	R_ground_force_px	R_ground_force_py	R_ground_force_pz	R_ground_torque_x	R_ground_torque_y	R_ground_torque_z	L_ground_force_vx	L_ground_force_vy	L_ground_force_vz	L_ground_force_px	L_ground_force_py	L_ground_force_pz	L_ground_torque_x	L_ground_torque_y	L_ground_torque_z	
1.794500	  0.000000	  0.000000	  0.000000	  0.159521	  0.000000	 -0.204910	  0.000000	  0.000000	  0.000000	  0.000000	  0.000000	  0.000000	  1.136882	  0.000000	 -0.363758	  0.000000	  0.000000	  0.000000
1.795000	  0.000000	  0.000000	  0.000000	  0.158227	  0.000000	 -0.204756	  0.000000	  0.000000	  0.000000	  0.000000	  0.000000	  0.000000	  1.138961	  0.000000	 -0.363513	  0.000000	  0.000000	  0.000000
1.795500	  0.000000	  0.000000	  0.000000	  0.157241	  0.000000	 -0.204657	  0.000000	  0.000000	  0.000000	  0.000000	  0.000000	  0.000000	  1.140683	  0.000000	 -0.363256	  0.000000	  0.000000	  0.000000
1.796000	  0.000000	  0.000000	  0.000000	  0.156256	  0.000000	 -0.204559	  0.000000	  0.000000	  0.000000	  0.000000	  0.000000	  0.000000	  1.142406	  0.000000	 -0.363000	  0.000000	  0.000000	  0.000000
1.796500	  0.000000	  0.000000	  0.000000	  0.155271	  0.000000	 -0.204461	  0.000000	  0.000000	  0.000000	  0.000000	  0.000000	  0.000000	  1.144128	  0.000000	 -0.362743	  0.000000	  0.000000	  0.000000
1.797000	  0.000000	  0.000000	  0.000000	  0.154285	  0.000000	 -0.204362	  0.000000	  0.000000	  0.000000	  0.000000	  0.000000	  0.000000	  1.145850	  0.000000	 -0.362486	  0.000000	  0.000000	  0.000000
1.797500	  0.000000	  0.000000	  0.000000	  0.153300	  0.000000	 -0.204264	  0.000000	  0.000000	  0.000000	  0.000000	  0.000000	  0.000000	  1.147573	  0.000000	 -0.362230	  0.000000	  0.000000	  0.000000
1.798000	  0.000000	  0.000000	  0.000000	  0.152315	  0.000000	 -0.204166	  0.000000	  0.000000	  0.000000	  0.000000	  0.000000	  0.000000	  1.149295	  0.000000	 -0.361973	  0.000000	  0.000000	  0.000000
1.798500	  0.000000	  0.000000	  0.000000	  0.151329	  0.000000	 -0.204067	  0.000000	  0.000000	  0.000000	  0.000000	  0.000000	  0.000000	  1.151017	  0.000000	 -0.361716	  0.000000	  0.000000	  0.000000
1.799000	  0.000000	  0.000000	  0.000000	  0.150344	  0.000000	 -0.203969	  0.000000	  0.000000	  0.000000	  0.000000	  0.000000	  0.000000	  1.152740	  0.000000	 -0.361459	  0.000000	  0.000000	  0.000000
1.799500	  0.000000	  0.000000	  0.000000	  0.149359	  0.000000	 -0.203871	  0.000000	  0.000000	  0.000000	  0.000000	  0.000000	  0.000000	  1.154462	  0.000000	 -0.361203	  0.000000	  0.000000	  0.000000
1.800000	  0.000000	  0.000000	  0.000000	  0.148373	  0.000000	 -0.203772	  0.000000	  0.000000	  0.000000	  0.000000	  0.000000	  0.000000	  1.156184	  0.000000	 -0.360946	  0.000000	  0.000000	  0.000000
1.800500	  0.000000	  0.000000	  0.000000	  0.147500	  0.000000	 -0.203724	  0.000000	  0.000000	  0.000000	  0.000000	  0.000000	  0.000000	  1.157572	  0.000000	 -0.360654	  0.000000	  0.000000	  0.000000
1.801000	  0.000000	  0.000000	  0.000000	  0.146626	  0.000000	 -0.203676	  0.000000	  0.000000	  0.000000	  0.000000	  0.000000	  0.000000	  1.158959	  0.000000	 -0.360363	  0.000000	  0.000000	  0.000000
1.801500	  0.000000	  0.000000	  0.000000	  0.145753	  0.000000	 -0.203627	  0.000000	  0.000000	  0.000000	  0.000000	  0.000000	  0.000000	  1.160346	  0.000000	 -0.360071	  0.000000	  0.000000	  0.000000
1.802000	  0.000000	  0.000000	  0.000000	  0.144879	  0.000000	 -0.203579	  0.000000	  0.000000	  0.000000	  0.000000	  0.000000	  0.000000	  1.161733	  0.000000	 -0.359780	  0.000000	  0.000000	  0.000000
1.802500	  0.000000	  0.000000	  0.000000	  0.144006	  0.000000	 -0.203531	  0.000000	  0.000000	  0.000000	  0.000000	  0.000000	  0.000000	  1.163121	  0.000000	 -0.359489	  0.000000	  0.000000	  0.000000
1.803000	  0.000000	  0.000000	  0.000000	  0.143132	  0.000000	 -0.203482	  0.000000	  0.000000	  0.000000	  0.000000	  0.000000	  0.000000	  1.164508	  0.000000	 -0.359197	  0.000000	  0.000000	  0.000000
1.803500	  0.000000	  0.000000	  0.000000	  0.142258	  0.000000	 -0.203434	  0.000000	  0.000000	  0.000000	  0.000000	  0.000000	  0.000000	  1.165895	  0.000000	 -0.358906	  0.000000	  0.000000	  0.000000
1.804000	  0.000000	  0.000000	  0.000000	  0.141385	  0.000000	 -0.203386	  0.000000	  0.000000	  0.000000	  0.000000	  0.000000	  0.000000	  1.167282	  0.000000	 -0.358614	  0.000000	  0.000000	  0.000000
1.804500	  0.000000	  0.000000	  0.000000	  0.140511	  0.000000	 -0.203337	  0.000000	  0.000000	  0.000000	  0.000000	  0.000000	  0.000000	  1.168669	  0.000000	 -0.358323	  0.000000	  0.000000	  0.000000
1.805000	  0.000000	  0.000000	  0.000000	  0.139638	  0.000000	 -0.203289	  0.000000	  0.000000	  0.000000	  0.000000	  0.000000	  0.000000	  1.170057	  0.000000	 -0.358031	  0.000000	  0.000000	  0.000000
1.805500	  0.000000	  0.000000	  0.000000	  0.138928	  0.000000	 -0.203203	  0.000000	  0.000000	  0.000000	  0.000000	  0.000000	  0.000000	  1.171087	  0.000000	 -0.357662	  0.000000	  0.000000	  0.000000
1.806000	  0.000000	  0.000000	  0.000000	  0.138219	  0.000000	 -0.203117	  0.000000	  0.000000	  0.000000	  0.000000	  0.000000	  0.000000	  1.172117	  0.000000	 -0.357292	  0.000000	  0.000000	  0.000000
1.806500	  0.000000	  0.000000	  0.000000	  0.137509	  0.000000	 -0.203031	  0.000000	  0.000000	  0.000000	  0.000000	  0.000000	  0.000000	  1.173147	  0.000000	 -0.356922	  0.000000	  0.000000	  0.000000
1.807000	  0.000000	  0.000000	  0.000000	  0.136800	  0.000000	 -0.202945	  0.000000	  0.000000	  0.000000	  0.000000	  0.000000	  0.000000	  1.174177	  0.000000	 -0.356553	  0.000000	  0.000000	  0.000000
1.807500	  0.000000	  0.000000	  0.000000	  0.136090	  0.000000	 -0.202859	  0.000000	  0.000000	  0.000000	  0.000000	  0.000000	  0.000000	  1.175207	  0.000000	 -0.356183	  0.000000	  0.000000	  0.000000
1.808000	  0.000000	  0.000000	  0.000000	  0.135381	  0.000000	 -0.202773	  0.000000	  0.000000	  0.000000	  0.000000	  0.000000	  0.000000	  1.176237	  0.000000	 -0.355813	  0.000000	  0.000000	  0.000000
1.808500	  0.000000	  0.000000	  0.000000	  0.134671	  0.000000	 -0.202687	  0.000000	  0.000000	  0.000000	  0.000000	  0.000000	  0.000000	  1.177267	  0.000000	 -0.355444	  0.000000	  0.000000	  0.000000
1.809000	  0.000000	  0.000000	  0.000000	  0.133961	  0.000000	 -0.202601	  0.000000	  0.000000	  0.000000	  0.000000	  0.000000	  0.000000	  1.178297	  0.000000	 -0.355074	  0.000000	  0.000000	  0.000000
1.809500	  0.000000	  0.000000	  0.000000	  0.133252	  0.000000	 -0.202515	  0.000000	  0.000000	  0.000000	  0.000000	  0.000000	  0.000000	  1.179327	  0.000000	 -0.354704	  0.000000	  0.000000	  0.000000
1.810000	  0.000000	  0.000000	  0.000000	  0.132542	  0.000000	 -0.202429	  0.000000	  0.000000	  0.000000	  0.000000	  0.000000	  0.000000	  1.180357	  0.000000	 -0.354335	  0.000000	  0.000000	  0.000000
1.810500	  0.000000	  0.000000	  0.000000	  0.131900	  0.000000	 -0.202744	  0.000000	  0.000000	  0.000000	  0.000000	  0.000000	  0.000000	  1.181039	  0.000000	 -0.353885	  0.000000	  0.000000	  0.000000
1.811000	  0.000000	  0.000000	  0.000000	  0.131257	  0.000000	 -0.203059	  0.000000	  0.000000	  0.000000	  0.000000	  0.000000	  0.000000	  1.181721	  0.000000	 -0.353436	  0.000000	  0.000000	  0.000000
1.811500	  0.000000	  0.000000	  0.000000	  0.130615	  0.000000	 -0.203375	  0.000000	  0.000000	  0.000000	  0.000000	  0.000000	  0.000000	  1.182403	  0.000000	 -0.352986	  0.000000	  0.000000	  0.000000
1.812000	  0.000000	  0.000000	  0.000000	  0.129972	  0.000000	 -0.203690	  0.000000	  0.000000	  0.000000	  0.000000	  0.000000	  0.000000	  1.183084	  0.000000	 -0.352536	  0.000000	  0.000000	  0.000000
1.812500	  0.000000	  0.000000	  0.000000	  0.129329	  0.000000	 -0.204005	  0.000000	  0.000000	  0.000000	  0.000000	  0.000000	  0.000000	  1.183766	  0.000000	 -0.352087	  0.000000	  0.000000	  0.000000
1.813000	  0.000000	  0.000000	  0.000000	  0.128687	  0.000000	 -0.204320	  0.000000	  0.000000	  0.000000	  0.000000	  0.000000	  0.000000	  1.184448	  0.000000	 -0.351637	  0.000000	  0.000000	  0.000000
1.813500	  0.000000	  0.000000	  0.000000	  0.128044	  0.000000	 -0.204635	  0.000000	  0.000000	  0.000000	  0.000000	  0.000000	  0.000000	  1.185130	  0.000000	 -0.351188	  0.000000	  0.000000	  0.000000
1.814000	  0.000000	  0.000000	  0.000000	  0.127402	  0.000000	 -0.204950	  0.000000	  0.000000	  0.000000	  0.000000	  0.000000	  0.000000	  1.185812	  0.000000	 -0.350738	  0.000000	  0.000000	  0.000000
1.814500	  0.000000	  0.000000	  0.000000	  0.126759	  0.000000	 -0.205265	  0.000000	  0.000000	  0.000000	  0.000000	  0.000000	  0.000000	  1.186494	  0.000000	 -0.350289	  0.000000	  0.000000	  0.000000
1.815000	  0.000000	  0.000000	  0.000000	  0.126116	  0.000000	 -0.205580	  0.000000	  0.000000	  0.000000	  0.000000	  0.000000	  0.000000	  1.187176	  0.000000	 -0.349839	  0.000000	  0.000000	  0.000000
1.815500	  0.000000	  0.000000	  0.000000	  0.125715	  0.000000	 -0.205610	  0.000000	  0.000000	  0.000000	  0.000000	  0.000000	  0.000000	  1.187575	  0.000000	 -0.349361	  0.000000	  0.000000	  0.000000
